<svg width="366" height="358" viewBox="0 0 366 358" fill="none" xmlns="http://www.w3.org/2000/svg">
<path d="M6 354.887L8.88675 352L6 349.113L3.11325 352L6 354.887ZM362.86 76.2075L363.207 72.1398L359.14 71.7926L358.793 75.8603L362.86 76.2075ZM6.5 352C6.5 350.456 6.52721 348.864 6.58139 347.227L5.58194 347.194C5.52742 348.842 5.5 350.444 5.5 352H6.5ZM7.19444 337.249C7.47346 334.044 7.83576 330.707 8.27992 327.25L7.28807 327.123C6.84232 330.592 6.47851 333.943 6.19821 337.162L7.19444 337.249ZM9.69203 317.54C10.2073 314.347 10.7836 311.071 11.42 307.72L10.4375 307.534C9.79953 310.893 9.22161 314.178 8.7048 317.38L9.69203 317.54ZM13.4147 297.882C14.0927 294.73 14.819 291.523 15.5929 288.266L14.6199 288.034C13.8445 291.299 13.1167 294.513 12.437 297.672L13.4147 297.882ZM18.0123 278.518C18.8259 275.372 19.6808 272.186 20.5764 268.966L19.6129 268.698C18.7158 271.924 17.8593 275.115 17.0441 278.267L18.0123 278.518ZM23.3393 259.358C24.2718 256.217 25.2411 253.049 26.2464 249.857L25.2926 249.556C24.2856 252.753 23.3148 255.927 22.3806 259.074L23.3393 259.358ZM29.3191 240.367C30.3578 237.244 31.4297 234.103 32.5343 230.948L31.5904 230.618C30.4842 233.778 29.4106 236.924 28.3702 240.051L29.3191 240.367ZM35.8999 221.566C37.0376 218.469 38.2059 215.362 39.4043 212.248L38.471 211.889C37.2708 215.008 36.1007 218.12 34.9612 221.221L35.8999 221.566ZM43.0553 202.972C44.2891 199.907 45.5514 196.838 46.8419 193.768L45.92 193.381C44.6276 196.455 43.3633 199.529 42.1276 202.599L43.0553 202.972ZM50.777 184.608C52.107 181.577 53.464 178.549 54.8476 175.527L53.9384 175.111C52.5525 178.138 51.1934 181.17 49.8613 184.206L50.777 184.608ZM59.0704 166.497C60.4993 163.505 61.9541 160.522 63.4345 157.551L62.5395 157.105C61.0566 160.081 59.5993 163.069 58.1681 166.066L59.0704 166.497ZM67.9531 148.673C69.4859 145.726 71.0439 142.793 72.6267 139.877L71.7479 139.4C70.1622 142.321 68.6014 145.259 67.0659 148.212L67.9531 148.673ZM77.4545 131.179C79.0983 128.281 80.7669 125.405 82.4598 122.554L81.5999 122.043C79.9036 124.901 78.2317 127.782 76.5848 130.685L77.4545 131.179ZM87.6164 114.066C89.3804 111.229 91.1689 108.42 92.9815 105.643L92.1441 105.097C90.3274 107.88 88.535 110.695 86.7672 113.538L87.6164 114.066ZM98.4946 97.4036C100.39 94.6416 102.31 91.9153 104.253 89.2283L103.443 88.6422C101.494 91.3361 99.5697 94.0692 97.67 96.8379L98.4946 97.4036ZM110.16 81.2844C112.199 78.617 114.263 75.9942 116.351 73.4198L115.575 72.7898C113.48 75.3719 111.41 78.0022 109.365 80.677L110.16 81.2844ZM122.699 65.833C124.897 63.2884 127.119 60.7987 129.367 58.368L128.632 57.6892C126.377 60.1285 124.147 62.6265 121.942 65.1794L122.699 65.833ZM136.215 51.2237C138.585 48.8409 140.981 46.5252 143.402 44.2808L142.722 43.5475C140.291 45.8013 137.885 48.1265 135.506 50.5184L136.215 51.2237ZM150.816 37.7014C153.372 35.5333 155.955 33.4463 158.563 31.4453L157.954 30.6519C155.333 32.6633 152.737 34.7606 150.169 36.9388L150.816 37.7014ZM166.604 25.6076C169.355 23.7232 172.133 21.9359 174.937 20.2512L174.421 19.394C171.6 21.0894 168.806 22.8874 166.039 24.7826L166.604 25.6076ZM183.636 15.4002C186.59 13.8806 189.57 12.4763 192.576 11.1933L192.184 10.2736C189.155 11.5663 186.153 12.9808 183.178 14.511L183.636 15.4002ZM201.872 7.64666C205.015 6.58907 208.184 5.66571 211.38 4.88289L211.142 3.91161C207.918 4.70131 204.722 5.63258 201.553 6.69888L201.872 7.64666ZM221.104 2.95289C224.358 2.45825 227.637 2.11109 230.94 1.91782L230.882 0.919525C227.547 1.11463 224.238 1.46504 220.954 1.96425L221.104 2.95289ZM240.857 1.80366C244.121 1.91936 247.409 2.18712 250.718 2.61293L250.846 1.62111C247.506 1.19137 244.188 0.921081 240.892 0.804287L240.857 1.80366ZM260.448 4.31192C263.645 5.01708 266.861 5.87139 270.097 6.88009L270.394 5.92541C267.132 4.9084 263.888 4.04677 260.663 3.33539L260.448 4.31192ZM279.335 10.1638C282.393 11.3846 285.467 12.7448 288.557 14.2487L288.995 13.3496C285.884 11.8353 282.787 10.4652 279.705 9.23507L279.335 10.1638ZM297.161 18.7881C300.031 20.4199 302.913 22.1767 305.808 24.0619L306.354 23.2239C303.442 21.3281 300.543 19.5608 297.655 17.9188L297.161 18.7881ZM313.802 29.5743C316.457 31.5073 319.122 33.5494 321.797 35.7029L322.424 34.9239C319.737 32.7606 317.059 30.7087 314.39 28.7658L313.802 29.5743ZM329.312 42.0272C331.747 44.1653 334.19 46.3966 336.64 48.7229L337.329 47.9978C334.87 45.6628 332.417 43.4227 329.972 41.2757L329.312 42.0272ZM343.844 55.8171C346.066 58.0847 348.295 60.431 350.529 62.8575L351.264 62.1802C349.023 59.7463 346.788 57.3923 344.558 55.1171L343.844 55.8171ZM357.247 70.3788C358.369 71.6728 359.493 72.9873 360.618 74.3222L361.382 73.6778C360.254 72.3393 359.128 71.0213 358.002 69.7236L357.247 70.3788ZM6 357.773L11.7735 352L6 346.226L0.226497 352L6 357.773ZM364.72 78.4149L365.415 70.2795L357.28 69.5852L356.585 77.7205L364.72 78.4149ZM7 352C7 350.462 7.02711 348.876 7.08112 347.243L5.08221 347.177C5.02752 348.83 5 350.439 5 352H7ZM7.69256 337.292C7.97094 334.095 8.33248 330.765 8.77584 327.314L6.79215 327.059C6.3456 330.535 5.98103 333.892 5.70009 337.119L7.69256 337.292ZM10.1856 317.619C10.7001 314.431 11.2756 311.16 11.9112 307.814L9.94633 307.44C9.30749 310.804 8.72877 314.094 8.21119 317.301L10.1856 317.619ZM13.9035 297.987C14.5808 294.839 15.3063 291.635 16.0793 288.381L14.1335 287.919C13.3573 291.186 12.6286 294.404 11.9482 297.567L13.9035 297.987ZM18.4963 278.643C19.3092 275.5 20.1634 272.317 21.0581 269.1L19.1312 268.564C18.2333 271.793 17.376 274.987 16.56 278.142L18.4963 278.643ZM23.8186 259.501C24.7504 256.362 25.7188 253.196 26.7233 250.007L24.8157 249.406C23.8079 252.606 22.8363 255.782 21.9013 258.931L23.8186 259.501ZM29.7936 240.525C30.8315 237.405 31.9025 234.266 33.0062 231.113L31.1185 230.452C30.0114 233.615 28.937 236.764 27.8958 239.894L29.7936 240.525ZM36.3692 221.738C37.5061 218.644 38.6735 215.539 39.8709 212.428L38.0044 211.709C36.8033 214.831 35.6323 217.945 34.4919 221.048L36.3692 221.738ZM43.5192 203.159C44.752 200.096 46.0134 197.029 47.3028 193.962L45.4591 193.187C44.1657 196.264 42.9004 199.34 41.6638 202.412L43.5192 203.159ZM51.2349 184.809C52.5638 181.78 53.9197 178.755 55.3023 175.735L53.4838 174.903C52.0968 177.932 50.7366 180.967 49.4035 184.005L51.2349 184.809ZM59.5216 166.713C60.9493 163.723 62.4029 160.743 63.882 157.774L62.0919 156.882C60.6078 159.861 59.1493 162.851 57.7169 165.851L59.5216 166.713ZM68.3968 148.904C69.9282 145.959 71.4848 143.028 73.0661 140.116L71.3085 139.162C69.7213 142.085 68.1591 145.026 66.6223 147.982L68.3968 148.904ZM77.8894 131.425C79.5316 128.531 81.1985 125.658 82.8897 122.809L81.1699 121.788C79.4719 124.648 77.7984 127.533 76.1499 130.438L77.8894 131.425ZM88.041 114.33C89.8031 111.496 91.5897 108.691 93.4002 105.916L91.7254 104.823C89.9066 107.61 88.1122 110.428 86.3426 113.274L88.041 114.33ZM98.9068 97.6865C100.8 94.9278 102.717 92.2049 104.658 89.5214L103.038 88.3491C101.087 91.0465 99.1597 93.783 97.2577 96.555L98.9068 97.6865ZM110.557 81.5881C112.593 78.9243 114.655 76.3054 116.74 73.7348L115.187 72.4748C113.089 75.0608 111.016 77.6949 108.968 80.3734L110.557 81.5881ZM123.078 66.1598C125.272 63.6193 127.49 61.1339 129.734 58.7075L128.265 57.3498C126.006 59.7933 123.772 62.2956 121.564 64.8526L123.078 66.1598ZM136.569 51.5763C138.935 49.1981 141.326 46.8871 143.742 44.6475L142.382 43.1808C139.946 45.4394 137.535 47.7692 135.151 50.1658L136.569 51.5763ZM151.139 38.0828C153.69 35.9197 156.266 33.8379 158.867 31.8419L157.65 30.2552C155.022 32.2718 152.42 34.3742 149.846 36.5575L151.139 38.0828ZM166.886 26.0201C169.63 24.1411 172.399 22.3592 175.194 20.6797L174.164 18.9655C171.334 20.6661 168.531 22.4695 165.756 24.3701L166.886 26.0201ZM183.865 15.8449C186.808 14.3305 189.778 12.9313 192.773 11.6532L191.988 9.81369C188.947 11.1113 185.934 12.531 182.95 14.0664L183.865 15.8449ZM202.031 8.12055C205.161 7.06731 208.317 6.14791 211.498 5.36853L211.023 3.42597C207.785 4.21912 204.575 5.15434 201.393 6.22499L202.031 8.12055ZM221.179 3.44721C224.418 2.95485 227.682 2.60933 230.969 2.41696L230.852 0.420379C227.502 0.616394 224.177 0.968443 220.879 1.46993L221.179 3.44721ZM240.839 2.30335C244.088 2.4185 247.36 2.685 250.654 3.10884L250.91 1.12519C247.554 0.693489 244.221 0.421942 240.91 0.304601L240.839 2.30335ZM260.34 4.80018C263.523 5.50224 266.726 6.35288 269.948 7.35743L270.543 5.44807C267.268 4.4269 264.01 3.56161 260.771 2.84713L260.34 4.80018ZM279.149 10.6282C282.196 11.8444 285.259 13.1996 288.339 14.6983L289.214 12.9C286.092 11.3805 282.984 10.0054 279.891 8.7707L279.149 10.6282ZM296.914 19.2228C299.774 20.8494 302.648 22.6009 305.535 24.4809L306.626 22.8049C303.707 20.9038 300.799 19.1312 297.902 17.4842L296.914 19.2228ZM313.507 29.9785C316.156 31.9066 318.815 33.9437 321.483 36.0923L322.738 34.5345C320.045 32.3662 317.36 30.3094 314.685 28.3616L313.507 29.9785ZM328.982 42.4029C331.412 44.5367 333.85 46.7636 336.296 49.0855L337.673 47.6352C335.209 45.2959 332.752 43.0514 330.302 40.9L328.982 42.4029ZM343.487 56.1671C345.705 58.4309 347.93 60.7734 350.161 63.1962L351.632 61.8416C349.388 59.4039 347.149 57.0462 344.915 54.7671L343.487 56.1671ZM356.869 70.7064C357.99 71.9986 359.112 73.3113 360.235 74.6444L361.765 73.3556C360.635 72.0153 359.507 70.6955 358.38 69.396L356.869 70.7064Z" fill="white" fill-opacity="0.15"/>
</svg>
