<svg width="369" height="360" viewBox="0 0 369 360" fill="none" xmlns="http://www.w3.org/2000/svg">
<path d="M6 356.886L8.88675 354L6 351.113L3.11325 354L6 356.886ZM365.968 76.1122L366.112 72.0323L362.032 71.8879L361.888 75.9678L365.968 76.1122ZM6.5 354C6.5 352.437 6.52463 350.825 6.57378 349.166L5.57422 349.136C5.5248 350.805 5.5 352.427 5.5 354H6.5ZM7.12994 339.065C7.38384 335.813 7.71407 332.426 8.11988 328.916L7.1265 328.801C6.71938 332.323 6.38791 335.722 6.13298 338.987L7.12994 339.065ZM9.40942 319.073C9.8805 315.837 10.4081 312.516 10.9916 309.118L10.0061 308.949C9.42113 312.355 8.89221 315.684 8.41985 318.928L9.40942 319.073ZM12.8316 299.101C13.456 295.903 14.1256 292.648 14.8402 289.342L13.8628 289.13C13.1468 292.443 12.4758 295.705 11.8501 298.91L12.8316 299.101ZM17.0778 279.448C17.8355 276.237 18.6329 272.986 19.4696 269.7L18.5005 269.453C17.6624 272.745 16.8636 276.002 16.1046 279.218L17.0778 279.448ZM22.0429 259.939C22.9176 256.73 23.828 253.493 24.7739 250.232L23.8134 249.953C22.8661 253.219 21.9542 256.462 21.0781 259.676L22.0429 259.939ZM27.6561 240.582C28.637 237.39 29.6508 234.179 30.6972 230.954L29.746 230.645C28.698 233.876 27.6827 237.091 26.7002 240.289L27.6561 240.582ZM33.877 221.404C34.9588 218.237 36.0713 215.06 37.2142 211.876L36.273 211.538C35.1283 214.727 34.0141 217.909 32.9307 221.081L33.877 221.404ZM40.6893 202.426C41.8702 199.291 43.0803 196.152 44.3193 193.013L43.3891 192.646C42.1482 195.79 40.9362 198.933 39.7534 202.074L40.6893 202.426ZM48.0937 183.672C49.3752 180.572 50.6847 177.476 52.022 174.387L51.1043 173.99C49.7648 177.084 48.4531 180.185 47.1696 183.29L48.0937 183.672ZM56.105 165.17C57.4909 162.112 58.9042 159.064 60.3445 156.029L59.4411 155.601C57.9982 158.641 56.5825 161.694 55.1942 164.757L56.105 165.17ZM64.7504 146.96C66.2469 143.95 67.7704 140.956 69.3207 137.982L68.4339 137.52C66.8807 140.5 65.3543 143.499 63.8549 146.514L64.7504 146.96ZM74.0696 129.089C75.6852 126.136 77.3276 123.206 78.9967 120.302L78.1298 119.804C76.4571 122.714 74.8112 125.65 73.1923 128.609L74.0696 129.089ZM84.116 111.621C85.8611 108.737 87.6332 105.883 89.4322 103.063L88.5891 102.526C86.7858 105.352 85.0095 108.212 83.2604 111.103L84.116 111.621ZM94.9574 94.6388C96.8444 91.8406 98.7589 89.0814 100.701 86.3645L99.8873 85.783C97.9399 88.5075 96.0202 91.2742 94.1283 94.0796L94.9574 94.6388ZM106.677 78.2541C108.72 75.5659 110.792 72.9259 112.892 70.3381L112.115 69.708C110.009 72.3044 107.931 74.9526 105.881 77.6489L106.677 78.2541ZM119.375 62.6195C121.59 60.074 123.834 57.5876 126.107 55.1645L125.378 54.4803C123.096 56.9128 120.843 59.4085 118.62 61.9631L119.375 62.6195ZM133.16 47.9457C135.562 45.5872 137.995 43.3003 140.458 41.0897L139.79 40.3455C137.316 42.5664 134.872 44.8635 132.459 47.2321L133.16 47.9457ZM148.145 34.523C150.757 32.4028 153.401 30.3694 156.076 28.4277L155.488 27.6184C152.798 29.5711 150.14 31.6155 147.514 33.7465L148.145 34.523ZM164.418 22.7406C167.26 20.9272 170.135 19.2181 173.043 17.6189L172.561 16.7427C169.633 18.3527 166.739 20.073 163.88 21.8976L164.418 22.7406ZM182.005 13.0922C185.064 11.6834 188.156 10.3966 191.283 9.23807L190.936 8.30037C187.784 9.46812 184.668 10.7647 181.587 12.1839L182.005 13.0922ZM200.814 6.13922C204.036 5.23657 207.293 4.47046 210.584 3.84712L210.398 2.8646C207.078 3.49337 203.794 4.26606 200.544 5.17628L200.814 6.13922ZM220.499 2.41746C223.813 2.08859 227.159 1.90476 230.538 1.87202L230.528 0.872063C227.119 0.905098 223.743 1.09056 220.4 1.42235L220.499 2.41746ZM240.509 2.21238C243.827 2.47029 247.176 2.87415 250.554 3.42943L250.716 2.44267C247.31 1.88281 243.933 1.47552 240.586 1.21539L240.509 2.21238ZM260.278 5.43043C263.489 6.22357 266.725 7.15365 269.988 8.22517L270.3 7.27511C267.014 6.19592 263.753 5.25888 260.517 4.45961L260.278 5.43043ZM279.338 11.6592C282.398 12.9012 285.479 14.2677 288.582 15.7623L289.016 14.8613C285.895 13.3579 282.794 11.9828 279.714 10.7326L279.338 11.6592ZM297.42 20.3363C300.331 21.9471 303.26 23.6706 306.207 25.5096L306.736 24.6613C303.775 22.8132 300.831 21.0808 297.904 19.4614L297.42 20.3363ZM314.455 30.9288C317.22 32.8362 320 34.8452 322.796 36.9582L323.399 36.1605C320.592 34.039 317.8 32.0215 315.023 30.1057L314.455 30.9288ZM330.523 43.0342C333.081 45.1235 335.652 47.2998 338.235 49.5648L338.894 48.813C336.303 46.5404 333.723 44.3566 331.156 42.2597L330.523 43.0342ZM345.774 56.3977C348.131 58.6029 350.497 60.8819 352.874 63.2361L353.578 62.5257C351.195 60.165 348.821 57.8793 346.457 55.6674L345.774 56.3977ZM360.033 70.5252C361.231 71.778 362.431 73.0498 363.634 74.3409L364.366 73.6592C363.16 72.365 361.957 71.09 360.756 69.8341L360.033 70.5252ZM6 359.773L11.7735 354L6 348.226L0.226497 354L6 359.773ZM367.935 78.2244L368.224 70.0645L360.064 69.7757L359.776 77.9356L367.935 78.2244ZM7 354C7 352.442 7.02455 350.835 7.07356 349.181L5.07444 349.121C5.02488 350.795 5 352.421 5 354H7ZM7.62843 339.104C7.88181 335.859 8.21142 332.478 8.61658 328.973L6.62981 328.744C6.22203 332.271 5.88995 335.677 5.6345 338.948L7.62843 339.104ZM9.90421 319.145C10.3746 315.913 10.9015 312.597 11.4844 309.203L9.51328 308.865C8.92766 312.274 8.39807 315.607 7.92507 318.856L9.90421 319.145ZM13.3223 299.197C13.9461 296.002 14.6151 292.75 15.329 289.447L13.3741 289.025C12.6574 292.34 11.9857 295.605 11.3594 298.814L13.3223 299.197ZM17.5645 279.563C18.3215 276.355 19.1181 273.107 19.9542 269.823L18.016 269.33C17.1771 272.625 16.3776 275.884 15.6179 279.104L17.5645 279.563ZM22.5253 260.07C23.3993 256.864 24.3089 253.63 25.2541 250.371L23.3332 249.814C22.3851 253.083 21.4725 256.327 20.5957 259.544L22.5253 260.07ZM28.1341 240.729C29.1142 237.539 30.1272 234.331 31.1728 231.108L29.2704 230.491C28.2216 233.724 27.2055 236.942 26.2223 240.142L28.1341 240.729ZM34.3502 221.566C35.4311 218.401 36.5427 215.227 37.6848 212.045L35.8024 211.369C34.6568 214.561 33.5418 217.745 32.4575 220.92L34.3502 221.566ZM41.1572 202.603C42.3372 199.469 43.5464 196.333 44.7844 193.197L42.9241 192.462C41.6822 195.608 40.4692 198.755 39.2855 201.898L41.1572 202.603ZM48.5558 183.863C49.8362 180.766 51.1447 177.672 52.4809 174.586L50.6455 173.791C49.3049 176.888 47.9921 179.992 46.7075 183.099L48.5558 183.863ZM56.5604 165.377C57.9451 162.321 59.3572 159.276 60.7962 156.244L58.9894 155.386C57.5452 158.429 56.1283 161.485 54.7388 164.551L56.5604 165.377ZM65.1981 147.182C66.6932 144.175 68.2153 141.184 69.764 138.213L67.9905 137.289C66.4358 140.272 64.9079 143.274 63.4072 146.292L65.1981 147.182ZM74.5083 129.329C76.1222 126.379 77.7629 123.452 79.4302 120.551L77.6963 119.555C76.0218 122.468 74.3742 125.407 72.7537 128.369L74.5083 129.329ZM84.5438 111.88C86.2868 108.999 88.0569 106.149 89.8537 103.332L88.1676 102.257C86.3621 105.087 84.5837 107.95 82.8327 110.844L84.5438 111.88ZM95.372 94.9183C97.2565 92.1239 99.1684 89.3683 101.108 86.6553L99.4805 85.4923C97.5304 88.2206 95.6081 90.991 93.7138 93.8001L95.372 94.9183ZM107.075 78.5566C109.115 75.8725 111.184 73.2367 113.28 70.6531L111.727 69.393C109.617 71.9936 107.536 74.646 105.483 77.3464L107.075 78.5566ZM119.752 62.9477C121.963 60.4067 124.203 57.925 126.472 55.5066L125.013 54.1382C122.727 56.5754 120.47 59.0757 118.243 61.6348L119.752 62.9477ZM133.51 48.3025C135.908 45.949 138.335 43.6672 140.792 41.4618L139.456 39.9734C136.976 42.1995 134.527 44.5017 132.109 46.8753L133.51 48.3025ZM148.46 34.9112C151.065 32.7965 153.702 30.7686 156.369 28.8323L155.195 27.2137C152.497 29.1719 149.832 31.2218 147.199 33.3583L148.46 34.9112ZM164.687 23.1621C167.52 21.3544 170.386 19.6508 173.284 18.057L172.32 16.3045C169.383 17.92 166.479 19.6458 163.611 21.4761L164.687 23.1621ZM182.215 13.5463C185.262 12.1427 188.343 10.8609 191.457 9.70692L190.762 7.83152C187.598 9.00386 184.47 10.3054 181.378 11.7298L182.215 13.5463ZM200.949 6.62069C204.158 5.72182 207.401 4.95901 210.677 4.33839L210.305 2.37333C206.971 3.00482 203.672 3.78081 200.409 4.69481L200.949 6.62069ZM220.549 2.91501C223.847 2.58761 227.179 2.40459 230.542 2.37199L230.523 0.372086C227.099 0.405266 223.709 0.591541 220.351 0.924791L220.549 2.91501ZM240.47 2.71088C243.774 2.96767 247.108 3.36981 250.473 3.92281L250.797 1.94929C247.377 1.38715 243.986 0.978135 240.625 0.716891L240.47 2.71088ZM260.158 5.91584C263.356 6.70592 266.581 7.63252 269.832 8.70021L270.456 6.80007C267.158 5.71706 263.885 4.77654 260.637 3.9742L260.158 5.91584ZM279.15 12.1225C282.2 13.3604 285.272 14.7226 288.365 16.2127L289.233 14.4109C286.103 12.903 282.992 11.5236 279.902 10.2694L279.15 12.1225ZM297.178 20.7738C300.081 22.3802 303.002 24.0993 305.942 25.9338L307.001 24.2371C304.032 22.3846 301.08 20.6477 298.146 19.0239L297.178 20.7738ZM314.171 31.3404C316.93 33.2435 319.705 35.2483 322.494 37.3571L323.7 35.7616C320.888 33.6359 318.09 31.6141 315.307 29.6941L314.171 31.3404ZM330.207 43.4215C332.76 45.5069 335.326 47.6795 337.905 49.9407L339.224 48.4371C336.628 46.1608 334.044 43.9731 331.472 41.8724L330.207 43.4215ZM345.432 56.7628C347.785 58.9646 350.149 61.2404 352.522 63.5913L353.93 62.1704C351.543 59.8065 349.166 57.5175 346.798 55.3023L345.432 56.7628ZM359.672 70.8708C360.868 72.1219 362.067 73.3922 363.268 74.6817L364.732 73.3184C363.524 72.0226 362.32 70.746 361.117 69.4885L359.672 70.8708Z" fill="white" fill-opacity="0.15"/>
</svg>
