<svg width="18" height="18" viewBox="0 0 18 18" fill="none" xmlns="http://www.w3.org/2000/svg">
<path d="M6.75 7.5C7.57843 7.5 8.25 6.82843 8.25 6C8.25 5.17157 7.57843 4.5 6.75 4.5C5.92157 4.5 5.25 5.17157 5.25 6C5.25 6.82843 5.92157 7.5 6.75 7.5Z" stroke="white" stroke-width="1.5" stroke-linecap="round" stroke-linejoin="round"/>
<path d="M9.75 1.5H6.75C3 1.5 1.5 3 1.5 6.75V11.25C1.5 15 3 16.5 6.75 16.5H11.25C15 16.5 16.5 15 16.5 11.25V7.5" stroke="white" stroke-width="1.5" stroke-linecap="round" stroke-linejoin="round"/>
<path d="M14.3549 1.94251L11.6324 4.66501C11.5274 4.77001 11.4224 4.97251 11.4074 5.12251L11.2574 6.16501C11.2049 6.54001 11.4674 6.80251 11.8424 6.75001L12.8849 6.60001C13.0274 6.57751 13.2374 6.48001 13.3424 6.37501L16.0649 3.65251C16.5374 3.18001 16.7549 2.64001 16.0649 1.95001C15.3674 1.24501 14.8274 1.47001 14.3549 1.94251Z" stroke="white" stroke-width="1.5" stroke-miterlimit="10" stroke-linecap="round" stroke-linejoin="round"/>
<path d="M13.9651 2.3325C14.1976 3.1575 14.8426 3.8025 15.6676 4.035" stroke="white" stroke-width="1.5" stroke-miterlimit="10" stroke-linecap="round" stroke-linejoin="round"/>
<path d="M2.00244 14.2125L5.69994 11.73C6.29244 11.3325 7.14744 11.3775 7.67994 11.835L7.92744 12.0525C8.51244 12.555 9.45744 12.555 10.0424 12.0525L13.1624 9.375C13.7474 8.8725 14.6924 8.8725 15.2774 9.375L16.4999 10.425" stroke="white" stroke-width="1.5" stroke-linecap="round" stroke-linejoin="round"/>
</svg>
