<svg width="14" height="22" viewBox="0 0 14 22" fill="none" xmlns="http://www.w3.org/2000/svg">
<path d="M5.4499 2.05L1.7099 6.71C0.8599 7.77 1.1599 9.13 2.3699 9.73L6.0999 11.6C6.5899 11.84 7.3899 11.84 7.8799 11.6L11.6099 9.73C12.8199 9.12 13.1199 7.76 12.2699 6.71L8.5399 2.05C7.6999 0.979998 6.2999 0.979998 5.4499 2.05Z" stroke="white" stroke-width="1.5" stroke-miterlimit="10" stroke-linecap="round" stroke-linejoin="round"/>
<path d="M7 1.29999V6.55999" stroke="white" stroke-width="1.5" stroke-miterlimit="10" stroke-linecap="round" stroke-linejoin="round"/>
<path d="M2.7998 9.71L6.9998 6.56L11.1998 9.71" stroke="white" stroke-width="1.5" stroke-miterlimit="10" stroke-linecap="round" stroke-linejoin="round"/>
<path d="M3.76987 13.43L5.37987 14.15C6.40987 14.61 7.58987 14.61 8.62987 14.15L10.2399 13.43C11.6799 12.79 13.0099 14.53 12.0099 15.75L8.54987 19.98C7.69987 21.02 6.30987 21.02 5.44987 19.98L1.99987 15.75C0.989867 14.53 2.31987 12.79 3.76987 13.43Z" stroke="white" stroke-width="1.5" stroke-miterlimit="10" stroke-linecap="round" stroke-linejoin="round"/>
</svg>
